<svg xmlns="http://www.w3.org/2000/svg" width="1440" height="900"><path d="M821,479L715,483L815,611Z" fill="#f5851f" stroke="#f5851f" stroke-width="1.51"/><path d="M715,483L717,651L815,611Z" fill="#f17f1c" stroke="#f17f1c" stroke-width="1.51"/><path d="M821,479L691,368L715,483Z" fill="#fd9829" stroke="#fd9829" stroke-width="1.51"/><path d="M998,503L874,385L821,479Z" fill="#f5841e" stroke="#f5841e" stroke-width="1.51"/><path d="M874,385L691,368L821,479Z" fill="#fb982c" stroke="#fb982c" stroke-width="1.51"/><path d="M715,483L622,682L717,651Z" fill="#ef8320" stroke="#ef8320" stroke-width="1.51"/><path d="M564,468L622,682L715,483Z" fill="#f8932b" stroke="#f8932b" stroke-width="1.51"/><path d="M691,368L564,468L715,483Z" fill="#ffa332" stroke="#ffa332" stroke-width="1.51"/><path d="M815,611L998,503L821,479Z" fill="#f07919" stroke="#f07919" stroke-width="1.51"/><path d="M874,385L760,240L691,368Z" fill="#fcaa3c" stroke="#fcaa3c" stroke-width="1.51"/><path d="M998,503L961,376L874,385Z" fill="#f18622" stroke="#f18622" stroke-width="1.51"/><path d="M717,651L760,797L815,611Z" fill="#e16d13" stroke="#e16d13" stroke-width="1.51"/><path d="M815,611L1015,645L998,503Z" fill="#e46810" stroke="#e46810" stroke-width="1.51"/><path d="M622,682L760,797L717,651Z" fill="#dd7219" stroke="#dd7219" stroke-width="1.51"/><path d="M935,793L1015,645L815,611Z" fill="#d85b09" stroke="#d85b09" stroke-width="1.51"/><path d="M564,468L505,542L622,682Z" fill="#f69830" stroke="#f69830" stroke-width="1.51"/><path d="M961,376L889,299L874,385Z" fill="#f69730" stroke="#f69730" stroke-width="1.51"/><path d="M760,797L877,808L815,611Z" fill="#d16110" stroke="#d16110" stroke-width="1.51"/><path d="M622,682L607,864L760,797Z" fill="#cd6e1c" stroke="#cd6e1c" stroke-width="1.51"/><path d="M505,542L546,729L622,682Z" fill="#ea8c2a" stroke="#ea8c2a" stroke-width="1.51"/><path d="M691,368L545,354L564,468Z" fill="#ffb240" stroke="#ffb240" stroke-width="1.51"/><path d="M564,468L421,364L505,542Z" fill="#ffb145" stroke="#ffb145" stroke-width="1.51"/><path d="M760,240L631,284L691,368Z" fill="#ffb74c" stroke="#ffb74c" stroke-width="1.51"/><path d="M631,284L545,354L691,368Z" fill="#ffbb47" stroke="#ffbb47" stroke-width="1.51"/><path d="M877,808L935,793L815,611Z" fill="#cf5a0c" stroke="#cf5a0c" stroke-width="1.51"/><path d="M889,299L760,240L874,385Z" fill="#faa640" stroke="#faa640" stroke-width="1.51"/><path d="M1015,645L1135,514L998,503Z" fill="#df630e" stroke="#df630e" stroke-width="1.51"/><path d="M998,503L1096,430L961,376Z" fill="#eb7c1c" stroke="#eb7c1c" stroke-width="1.51"/><path d="M935,793L1077,684L1015,645Z" fill="#cb4f05" stroke="#cb4f05" stroke-width="1.51"/><path d="M505,542L442,639L546,729Z" fill="#ed9336" stroke="#ed9336" stroke-width="1.51"/><path d="M355,489L442,639L505,542Z" fill="#f9a549" stroke="#f9a549" stroke-width="1.51"/><path d="M1135,514L1096,430L998,503Z" fill="#e36e13" stroke="#e36e13" stroke-width="1.51"/><path d="M961,376L1017,210L889,299Z" fill="#f39c3e" stroke="#f39c3e" stroke-width="1.51"/><path d="M546,729L607,864L622,682Z" fill="#d37a24" stroke="#d37a24" stroke-width="1.51"/><path d="M760,797L822,950L877,808Z" fill="#b65611" stroke="#b65611" stroke-width="1.51"/><path d="M492,782L607,864L546,729Z" fill="#cb7b27" stroke="#cb7b27" stroke-width="1.51"/><path d="M1077,684L1135,514L1015,645Z" fill="#d55706" stroke="#d55706" stroke-width="1.51"/><path d="M442,639L492,782L546,729Z" fill="#de8933" stroke="#de8933" stroke-width="1.51"/><path d="M607,864L698,928L760,797Z" fill="#b8641a" stroke="#b8641a" stroke-width="1.51"/><path d="M877,808L963,932L935,793Z" fill="#b24b0b" stroke="#b24b0b" stroke-width="1.51"/><path d="M545,354L421,364L564,468Z" fill="#ffbc4c" stroke="#ffbc4c" stroke-width="1.51"/><path d="M631,284L507,252L545,354Z" fill="#ffc75a" stroke="#ffc75a" stroke-width="1.51"/><path d="M615,163L507,252L631,284Z" fill="#ffcd6a" stroke="#ffcd6a" stroke-width="1.51"/><path d="M507,252L421,364L545,354Z" fill="#ffca5d" stroke="#ffca5d" stroke-width="1.51"/><path d="M760,240L615,163L631,284Z" fill="#ffc463" stroke="#ffc463" stroke-width="1.51"/><path d="M715,117L615,163L760,240Z" fill="#ffc66c" stroke="#ffc66c" stroke-width="1.51"/><path d="M698,928L822,950L760,797Z" fill="#af5915" stroke="#af5915" stroke-width="1.51"/><path d="M935,793L1153,738L1077,684Z" fill="#bf4703" stroke="#bf4703" stroke-width="1.51"/><path d="M889,299L884,130L760,240Z" fill="#fcb159" stroke="#fcb159" stroke-width="1.51"/><path d="M1121,283L1017,210L961,376Z" fill="#ec953c" stroke="#ec953c" stroke-width="1.51"/><path d="M1121,283L961,376L1096,430Z" fill="#e88727" stroke="#e88727" stroke-width="1.51"/><path d="M421,364L355,489L505,542Z" fill="#ffb652" stroke="#ffb652" stroke-width="1.51"/><path d="M350,873L494,905L492,782Z" fill="#bd7e3a" stroke="#bd7e3a" stroke-width="1.51"/><path d="M958,129L884,130L889,299Z" fill="#faad5d" stroke="#faad5d" stroke-width="1.51"/><path d="M884,130L715,117L760,240Z" fill="#ffbc68" stroke="#ffbc68" stroke-width="1.51"/><path d="M1077,684L1212,623L1135,514Z" fill="#cc5307" stroke="#cc5307" stroke-width="1.51"/><path d="M1145,881L1153,738L935,793Z" fill="#ae3f04" stroke="#ae3f04" stroke-width="1.51"/><path d="M822,950L963,932L877,808Z" fill="#a74a0f" stroke="#a74a0f" stroke-width="1.51"/><path d="M1228,375L1121,283L1096,430Z" fill="#dc8026" stroke="#dc8026" stroke-width="1.51"/><path d="M1228,375L1096,430L1135,514Z" fill="#db7018" stroke="#db7018" stroke-width="1.51"/><path d="M421,364L373,342L355,489Z" fill="#ffc663" stroke="#ffc663" stroke-width="1.51"/><path d="M507,252L373,342L421,364Z" fill="#ffcf69" stroke="#ffcf69" stroke-width="1.51"/><path d="M413,161L373,342L507,252Z" fill="#ffd97d" stroke="#ffd97d" stroke-width="1.51"/><path d="M1153,738L1212,623L1077,684Z" fill="#c14703" stroke="#c14703" stroke-width="1.51"/><path d="M822,950L880,992L963,932Z" fill="#a74a0e" stroke="#a74a0e" stroke-width="1.51"/><path d="M698,928L766,992L822,950Z" fill="#ad5815" stroke="#ad5815" stroke-width="1.51"/><path d="M580,1074L766,992L698,928Z" fill="#af611b" stroke="#af611b" stroke-width="1.51"/><path d="M580,1074L698,928L607,864Z" fill="#b06720" stroke="#b06720" stroke-width="1.51"/><path d="M1017,210L958,129L889,299Z" fill="#f5a655" stroke="#f5a655" stroke-width="1.51"/><path d="M854,-2L687,5L715,117Z" fill="#ffc780" stroke="#ffc780" stroke-width="1.51"/><path d="M1103,150L958,129L1017,210Z" fill="#f1a45c" stroke="#f1a45c" stroke-width="1.51"/><path d="M492,782L494,905L607,864Z" fill="#bd772b" stroke="#bd772b" stroke-width="1.51"/><path d="M325,746L492,782L442,639Z" fill="#de8f41" stroke="#de8f41" stroke-width="1.51"/><path d="M766,992L880,992L822,950Z" fill="#aa5212" stroke="#aa5212" stroke-width="1.51"/><path d="M355,489L308,685L442,639Z" fill="#f3a451" stroke="#f3a451" stroke-width="1.51"/><path d="M213,624L308,685L355,489Z" fill="#f6a95b" stroke="#f6a95b" stroke-width="1.51"/><path d="M1121,283L1103,150L1017,210Z" fill="#ea9a4f" stroke="#ea9a4f" stroke-width="1.51"/><path d="M1283,501L1228,375L1135,514Z" fill="#d06715" stroke="#d06715" stroke-width="1.51"/><path d="M308,685L325,746L442,639Z" fill="#e6984d" stroke="#e6984d" stroke-width="1.51"/><path d="M963,932L1145,881L935,793Z" fill="#a54008" stroke="#a54008" stroke-width="1.51"/><path d="M1153,738L1266,788L1212,623Z" fill="#b03e04" stroke="#b03e04" stroke-width="1.51"/><path d="M1079,1019L1145,881L963,932Z" fill="#993a07" stroke="#993a07" stroke-width="1.51"/><path d="M766,992L950,1020L880,992Z" fill="#a84d0f" stroke="#a84d0f" stroke-width="1.51"/><path d="M880,992L950,1020L963,932Z" fill="#a4460c" stroke="#a4460c" stroke-width="1.51"/><path d="M1212,623L1283,501L1135,514Z" fill="#cb580d" stroke="#cb580d" stroke-width="1.51"/><path d="M1324,643L1283,501L1212,623Z" fill="#bc4d09" stroke="#bc4d09" stroke-width="1.51"/><path d="M1200,117L1103,150L1121,283Z" fill="#e29854" stroke="#e29854" stroke-width="1.51"/><path d="M572,27L413,161L615,163Z" fill="#ffdd87" stroke="#ffdd87" stroke-width="1.51"/><path d="M615,163L413,161L507,252Z" fill="#ffd97d" stroke="#ffd97d" stroke-width="1.51"/><path d="M325,746L350,873L492,782Z" fill="#cb8844" stroke="#cb8844" stroke-width="1.51"/><path d="M494,905L580,1074L607,864Z" fill="#b06f27" stroke="#b06f27" stroke-width="1.51"/><path d="M241,776L350,873L325,746Z" fill="#cd8d4f" stroke="#cd8d4f" stroke-width="1.51"/><path d="M715,117L572,27L615,163Z" fill="#ffd380" stroke="#ffd380" stroke-width="1.51"/><path d="M854,-2L715,117L884,130Z" fill="#ffbe75" stroke="#ffbe75" stroke-width="1.51"/><path d="M854,-2L884,130L958,129Z" fill="#fdb570" stroke="#fdb570" stroke-width="1.51"/><path d="M1004,-28L854,-2L958,129Z" fill="#fbb377" stroke="#fbb377" stroke-width="1.51"/><path d="M193,338L221,489L373,342Z" fill="#ffcf74" stroke="#ffcf74" stroke-width="1.51"/><path d="M373,342L221,489L355,489Z" fill="#ffc366" stroke="#ffc366" stroke-width="1.51"/><path d="M308,685L241,776L325,746Z" fill="#dd9653" stroke="#dd9653" stroke-width="1.51"/><path d="M687,5L572,27L715,117Z" fill="#ffd187" stroke="#ffd187" stroke-width="1.51"/><path d="M1145,881L1266,788L1153,738Z" fill="#9f3705" stroke="#9f3705" stroke-width="1.51"/><path d="M1266,788L1324,643L1212,623Z" fill="#af3e03" stroke="#af3e03" stroke-width="1.51"/><path d="M221,489L213,624L355,489Z" fill="#fdb564" stroke="#fdb564" stroke-width="1.51"/><path d="M413,161L302,229L373,342Z" fill="#ffe08b" stroke="#ffe08b" stroke-width="1.51"/><path d="M374,115L302,229L413,161Z" fill="#ffe79c" stroke="#ffe79c" stroke-width="1.51"/><path d="M430,1054L580,1074L494,905Z" fill="#b17530" stroke="#b17530" stroke-width="1.51"/><path d="M766,992L580,1074L950,1020Z" fill="#ad5815" stroke="#ad5815" stroke-width="1.51"/><path d="M1145,881L1224,913L1266,788Z" fill="#8e3206" stroke="#8e3206" stroke-width="1.51"/><path d="M950,1020L1079,1019L963,932Z" fill="#9e400a" stroke="#9e400a" stroke-width="1.51"/><path d="M1224,1068L1079,1019L950,1020Z" fill="#973806" stroke="#973806" stroke-width="1.51"/><path d="M1228,375L1263,258L1121,283Z" fill="#d68534" stroke="#d68534" stroke-width="1.51"/><path d="M1355,404L1263,258L1228,375Z" fill="#c97927" stroke="#c97927" stroke-width="1.51"/><path d="M1355,404L1228,375L1283,501Z" fill="#c76a1a" stroke="#c76a1a" stroke-width="1.51"/><path d="M213,624L241,776L308,685Z" fill="#e79d59" stroke="#e79d59" stroke-width="1.51"/><path d="M459,3L374,115L413,161Z" fill="#ffe8a0" stroke="#ffe8a0" stroke-width="1.51"/><path d="M1266,788L1346,729L1324,643Z" fill="#a03904" stroke="#a03904" stroke-width="1.51"/><path d="M1079,1019L1224,913L1145,881Z" fill="#8e3406" stroke="#8e3406" stroke-width="1.51"/><path d="M1324,643L1358,512L1283,501Z" fill="#b9510d" stroke="#b9510d" stroke-width="1.51"/><path d="M1358,512L1355,404L1283,501Z" fill="#be5e14" stroke="#be5e14" stroke-width="1.51"/><path d="M1103,150L1004,-28L958,129Z" fill="#f3aa6a" stroke="#f3aa6a" stroke-width="1.51"/><path d="M1263,258L1200,117L1121,283Z" fill="#d9914c" stroke="#d9914c" stroke-width="1.51"/><path d="M1324,148L1200,117L1263,258Z" fill="#d09052" stroke="#d09052" stroke-width="1.51"/><path d="M1342,902L1346,729L1266,788Z" fill="#8c3005" stroke="#8c3005" stroke-width="1.51"/><path d="M1452,679L1459,473L1358,512Z" fill="#aa4b0e" stroke="#aa4b0e" stroke-width="1.51"/><path d="M221,489L112,480L213,624Z" fill="#ffba6e" stroke="#ffba6e" stroke-width="1.51"/><path d="M302,229L193,338L373,342Z" fill="#ffdc83" stroke="#ffdc83" stroke-width="1.51"/><path d="M190,221L193,338L302,229Z" fill="#ffe596" stroke="#ffe596" stroke-width="1.51"/><path d="M332,1003L430,1054L494,905Z" fill="#b27b3e" stroke="#b27b3e" stroke-width="1.51"/><path d="M332,1003L494,905L350,873Z" fill="#b27d43" stroke="#b27d43" stroke-width="1.51"/><path d="M1070,-44L1004,-28L1103,150Z" fill="#f2a873" stroke="#f2a873" stroke-width="1.51"/><path d="M753,-155L609,-132L687,5Z" fill="#ffd08d" stroke="#ffd08d" stroke-width="1.51"/><path d="M572,27L459,3L413,161Z" fill="#ffe49a" stroke="#ffe49a" stroke-width="1.51"/><path d="M181,138L190,221L302,229Z" fill="#ffeda6" stroke="#ffeda6" stroke-width="1.51"/><path d="M488,-92L459,3L572,27Z" fill="#ffe4a1" stroke="#ffe4a1" stroke-width="1.51"/><path d="M609,-132L572,27L687,5Z" fill="#ffd893" stroke="#ffd893" stroke-width="1.51"/><path d="M180,936L332,1003L350,873Z" fill="#b38450" stroke="#b38450" stroke-width="1.51"/><path d="M1355,404L1351,258L1263,258Z" fill="#c47c32" stroke="#c47c32" stroke-width="1.51"/><path d="M1454,283L1351,258L1355,404Z" fill="#b9772f" stroke="#b9772f" stroke-width="1.51"/><path d="M1004,-28L996,-98L854,-2Z" fill="#fbb37d" stroke="#fbb37d" stroke-width="1.51"/><path d="M1200,117L1070,-44L1103,150Z" fill="#e8a168" stroke="#e8a168" stroke-width="1.51"/><path d="M1278,4L1070,-44L1200,117Z" fill="#e09e6f" stroke="#e09e6f" stroke-width="1.51"/><path d="M193,338L112,480L221,489Z" fill="#ffcb78" stroke="#ffcb78" stroke-width="1.51"/><path d="M213,624L101,683L241,776Z" fill="#e9a061" stroke="#e9a061" stroke-width="1.51"/><path d="M241,776L180,936L350,873Z" fill="#be8954" stroke="#be8954" stroke-width="1.51"/><path d="M181,138L302,229L374,115Z" fill="#ffeca7" stroke="#ffeca7" stroke-width="1.51"/><path d="M193,338L58,424L112,480Z" fill="#ffd081" stroke="#ffd081" stroke-width="1.51"/><path d="M1224,913L1342,902L1266,788Z" fill="#842e05" stroke="#842e05" stroke-width="1.51"/><path d="M1452,679L1358,512L1324,643Z" fill="#a94509" stroke="#a94509" stroke-width="1.51"/><path d="M1224,1068L1342,902L1224,913Z" fill="#7f2c06" stroke="#7f2c06" stroke-width="1.51"/><path d="M1070,-44L996,-98L1004,-28Z" fill="#f5ac79" stroke="#f5ac79" stroke-width="1.51"/><path d="M1351,258L1324,148L1263,258Z" fill="#c78949" stroke="#c78949" stroke-width="1.51"/><path d="M112,480L101,683L213,624Z" fill="#f9b16d" stroke="#f9b16d" stroke-width="1.51"/><path d="M1358,512L1459,473L1355,404Z" fill="#b65d16" stroke="#b65d16" stroke-width="1.51"/><path d="M1351,258L1454,283L1324,148Z" fill="#bd8447" stroke="#bd8447" stroke-width="1.51"/><path d="M1452,679L1324,643L1346,729Z" fill="#9f3a05" stroke="#9f3a05" stroke-width="1.51"/><path d="M300,-9L181,138L374,115Z" fill="#fff2b5" stroke="#fff2b5" stroke-width="1.51"/><path d="M753,-155L687,5L854,-2Z" fill="#ffc787" stroke="#ffc787" stroke-width="1.51"/><path d="M1079,1019L1224,1068L1224,913Z" fill="#8b3206" stroke="#8b3206" stroke-width="1.51"/><path d="M580,1074L1224,1068L950,1020Z" fill="#a5470d" stroke="#a5470d" stroke-width="1.51"/><path d="M609,-132L488,-92L572,27Z" fill="#ffdf9a" stroke="#ffdf9a" stroke-width="1.51"/><path d="M1459,812L1452,679L1346,729Z" fill="#8c3206" stroke="#8c3206" stroke-width="1.51"/><path d="M861,-166L753,-155L854,-2Z" fill="#ffc184" stroke="#ffc184" stroke-width="1.51"/><path d="M332,1003L75,1075L430,1054Z" fill="#b38450" stroke="#b38450" stroke-width="1.51"/><path d="M88,909L180,936L241,776Z" fill="#bc8c5d" stroke="#bc8c5d" stroke-width="1.51"/><path d="M996,-98L861,-166L854,-2Z" fill="#ffb87f" stroke="#ffb87f" stroke-width="1.51"/><path d="M102,257L58,424L193,338Z" fill="#ffde8d" stroke="#ffde8d" stroke-width="1.51"/><path d="M300,-9L374,115L459,3Z" fill="#ffeeb2" stroke="#ffeeb2" stroke-width="1.51"/><path d="M112,480L-59,555L101,683Z" fill="#fdb679" stroke="#fdb679" stroke-width="1.51"/><path d="M102,257L193,338L190,221Z" fill="#ffe79b" stroke="#ffe79b" stroke-width="1.51"/><path d="M342,-121L300,-9L459,3Z" fill="#fff0ba" stroke="#fff0ba" stroke-width="1.51"/><path d="M181,138L102,257L190,221Z" fill="#ffefad" stroke="#ffefad" stroke-width="1.51"/><path d="M1533,338L1454,283L1355,404Z" fill="#b07128" stroke="#b07128" stroke-width="1.51"/><path d="M1342,902L1459,812L1346,729Z" fill="#812d06" stroke="#812d06" stroke-width="1.51"/><path d="M1640,367L1533,338L1459,473Z" fill="#b06720" stroke="#b06720" stroke-width="1.51"/><path d="M1515,941L1459,812L1342,902Z" fill="#692606" stroke="#692606" stroke-width="1.51"/><path d="M996,-98L1066,-177L861,-166Z" fill="#f9b17b" stroke="#f9b17b" stroke-width="1.51"/><path d="M1070,-44L1066,-177L996,-98Z" fill="#f3aa78" stroke="#f3aa78" stroke-width="1.51"/><path d="M1324,148L1278,4L1200,117Z" fill="#d29561" stroke="#d29561" stroke-width="1.51"/><path d="M1403,-20L1278,4L1324,148Z" fill="#c79269" stroke="#c79269" stroke-width="1.51"/><path d="M101,683L48,741L241,776Z" fill="#e09c65" stroke="#e09c65" stroke-width="1.51"/><path d="M-66,657L48,741L101,683Z" fill="#eba473" stroke="#eba473" stroke-width="1.51"/><path d="M180,936L164,1004L332,1003Z" fill="#b48756" stroke="#b48756" stroke-width="1.51"/><path d="M88,909L164,1004L180,936Z" fill="#b58a5f" stroke="#b58a5f" stroke-width="1.51"/><path d="M48,741L88,909L241,776Z" fill="#cd9363" stroke="#cd9363" stroke-width="1.51"/><path d="M1229,-135L1066,-177L1070,-44Z" fill="#eaa375" stroke="#eaa375" stroke-width="1.51"/><path d="M181,138L52,140L102,257Z" fill="#fff2b7" stroke="#fff2b7" stroke-width="1.51"/><path d="M300,-9L208,-9L181,138Z" fill="#fff6c3" stroke="#fff6c3" stroke-width="1.51"/><path d="M244,-174L208,-9L300,-9Z" fill="#fff7c8" stroke="#fff7c8" stroke-width="1.51"/><path d="M342,-121L459,3L488,-92Z" fill="#ffebaf" stroke="#ffebaf" stroke-width="1.51"/><path d="M1224,1068L1367,1059L1342,902Z" fill="#782a06" stroke="#782a06" stroke-width="1.51"/><path d="M1523,107L1403,-20L1324,148Z" fill="#b98c61" stroke="#b98c61" stroke-width="1.51"/><path d="M1459,473L1533,338L1355,404Z" fill="#b0651e" stroke="#b0651e" stroke-width="1.51"/><path d="M1590,628L1459,473L1452,679Z" fill="#a2440c" stroke="#a2440c" stroke-width="1.51"/><path d="M244,-174L609,-132L753,-155Z" fill="#ffe29c" stroke="#ffe29c" stroke-width="1.51"/><path d="M244,-174L342,-121L609,-132Z" fill="#ffedb4" stroke="#ffedb4" stroke-width="1.51"/><path d="M609,-132L342,-121L488,-92Z" fill="#ffe6a6" stroke="#ffe6a6" stroke-width="1.51"/><path d="M58,424L-59,555L112,480Z" fill="#ffc482" stroke="#ffc482" stroke-width="1.51"/><path d="M102,257L-17,374L58,424Z" fill="#ffde94" stroke="#ffde94" stroke-width="1.51"/><path d="M-89,238L-17,374L102,257Z" fill="#ffe8a9" stroke="#ffe8a9" stroke-width="1.51"/><path d="M1278,4L1229,-135L1070,-44Z" fill="#df9e73" stroke="#df9e73" stroke-width="1.51"/><path d="M1385,-146L1229,-135L1278,4Z" fill="#ce9671" stroke="#ce9671" stroke-width="1.51"/><path d="M115,19L52,140L181,138Z" fill="#fff9c6" stroke="#fff9c6" stroke-width="1.51"/><path d="M1632,805L1590,628L1452,679Z" fill="#913506" stroke="#913506" stroke-width="1.51"/><path d="M1632,805L1452,679L1459,812Z" fill="#842f06" stroke="#842f06" stroke-width="1.51"/><path d="M48,741L-42,783L88,909Z" fill="#ce966d" stroke="#ce966d" stroke-width="1.51"/><path d="M-17,374L-59,555L58,424Z" fill="#ffcc8a" stroke="#ffcc8a" stroke-width="1.51"/><path d="M208,-9L115,19L181,138Z" fill="#fff9c9" stroke="#fff9c9" stroke-width="1.51"/><path d="M92,-111L115,19L208,-9Z" fill="#fffcd6" stroke="#fffcd6" stroke-width="1.51"/><path d="M-59,555L-66,657L101,683Z" fill="#f6ad7a" stroke="#f6ad7a" stroke-width="1.51"/><path d="M1367,1059L1515,941L1342,902Z" fill="#6a2606" stroke="#6a2606" stroke-width="1.51"/><path d="M1523,107L1324,148L1454,283Z" fill="#b58550" stroke="#b58550" stroke-width="1.51"/><path d="M-66,657L-42,783L48,741Z" fill="#e4a074" stroke="#e4a074" stroke-width="1.51"/><path d="M88,909L75,1075L164,1004Z" fill="#b58b63" stroke="#b58b63" stroke-width="1.51"/><path d="M1590,628L1626,536L1459,473Z" fill="#a84c0f" stroke="#a84c0f" stroke-width="1.51"/><path d="M1598,149L1523,107L1454,283Z" fill="#b38450" stroke="#b38450" stroke-width="1.51"/><path d="M1727,529L1626,536L1590,628Z" fill="#a6490e" stroke="#a6490e" stroke-width="1.51"/><path d="M1598,149L1454,283L1533,338Z" fill="#b27c3f" stroke="#b27c3f" stroke-width="1.51"/><path d="M-75,1039L75,1075L88,909Z" fill="#b68c6b" stroke="#b68c6b" stroke-width="1.51"/><path d="M164,1004L75,1075L332,1003Z" fill="#b5895b" stroke="#b5895b" stroke-width="1.51"/><path d="M430,1054L75,1075L580,1074Z" fill="#b28047" stroke="#b28047" stroke-width="1.51"/><path d="M1515,941L1632,805L1459,812Z" fill="#702806" stroke="#702806" stroke-width="1.51"/><path d="M1367,1059L1487,1054L1515,941Z" fill="#662506" stroke="#662506" stroke-width="1.51"/><path d="M1224,1068L1487,1054L1367,1059Z" fill="#712806" stroke="#712806" stroke-width="1.51"/><path d="M1626,536L1640,367L1459,473Z" fill="#af5b16" stroke="#af5b16" stroke-width="1.51"/><path d="M342,-121L244,-174L300,-9Z" fill="#fff4c2" stroke="#fff4c2" stroke-width="1.51"/><path d="M861,-166L244,-174L753,-155Z" fill="#ffd894" stroke="#ffd894" stroke-width="1.51"/><path d="M1066,-177L244,-174L861,-166Z" fill="#ffcb8a" stroke="#ffcb8a" stroke-width="1.51"/><path d="M1603,945L1632,805L1515,941Z" fill="#662506" stroke="#662506" stroke-width="1.51"/><path d="M1779,392L1673,229L1640,367Z" fill="#b0732b" stroke="#b0732b" stroke-width="1.51"/><path d="M-201,401L-178,537L-59,555Z" fill="#ffc385" stroke="#ffc385" stroke-width="1.51"/><path d="M-59,555L-178,537L-66,657Z" fill="#fdb57e" stroke="#fdb57e" stroke-width="1.51"/><path d="M52,140L-89,238L102,257Z" fill="#fff1bb" stroke="#fff1bb" stroke-width="1.51"/><path d="M-83,99L-89,238L52,140Z" fill="#fff7c8" stroke="#fff7c8" stroke-width="1.51"/><path d="M-12,-5L52,140L115,19Z" fill="#fffcd5" stroke="#fffcd5" stroke-width="1.51"/><path d="M-42,783L-79,875L88,909Z" fill="#c3916f" stroke="#c3916f" stroke-width="1.51"/><path d="M-142,812L-79,875L-42,783Z" fill="#cb9570" stroke="#cb9570" stroke-width="1.51"/><path d="M-142,812L-42,783L-187,690Z" fill="#db9b72" stroke="#db9b72" stroke-width="1.51"/><path d="M1673,229L1598,149L1533,338Z" fill="#b27e44" stroke="#b27e44" stroke-width="1.51"/><path d="M1540,-156L1385,-146L1403,-20Z" fill="#b78d6e" stroke="#b78d6e" stroke-width="1.51"/><path d="M1530,3L1403,-20L1523,107Z" fill="#b68c69" stroke="#b68c69" stroke-width="1.51"/><path d="M1403,-20L1385,-146L1278,4Z" fill="#c59270" stroke="#c59270" stroke-width="1.51"/><path d="M1229,-135L1385,-146L1066,-177Z" fill="#da9b72" stroke="#da9b72" stroke-width="1.51"/><path d="M1487,1054L1603,945L1515,941Z" fill="#662506" stroke="#662506" stroke-width="1.51"/><path d="M1603,3L1530,3L1523,107Z" fill="#b68c68" stroke="#b68c68" stroke-width="1.51"/><path d="M244,-174L92,-111L208,-9Z" fill="#fffbd1" stroke="#fffbd1" stroke-width="1.51"/><path d="M-201,401L-59,555L-17,374Z" fill="#ffcd8b" stroke="#ffcd8b" stroke-width="1.51"/><path d="M-79,875L-75,1039L88,909Z" fill="#b78d6e" stroke="#b78d6e" stroke-width="1.51"/><path d="M-187,690L-42,783L-66,657Z" fill="#e8a275" stroke="#e8a275" stroke-width="1.51"/><path d="M92,-111L-12,-5L115,19Z" fill="#fffddd" stroke="#fffddd" stroke-width="1.51"/><path d="M1598,149L1603,3L1523,107Z" fill="#b58a60" stroke="#b58a60" stroke-width="1.51"/><path d="M1640,367L1673,229L1533,338Z" fill="#b17530" stroke="#b17530" stroke-width="1.51"/><path d="M1727,529L1640,367L1626,536Z" fill="#ad5815" stroke="#ad5815" stroke-width="1.51"/><path d="M1802,601L1727,529L1590,628Z" fill="#a3460c" stroke="#a3460c" stroke-width="1.51"/><path d="M1802,601L1590,628L1632,805Z" fill="#973806" stroke="#973806" stroke-width="1.51"/><path d="M-12,-5L-83,99L52,140Z" fill="#fffcd7" stroke="#fffcd7" stroke-width="1.51"/><path d="M-89,238L-201,401L-17,374Z" fill="#ffe19b" stroke="#ffe19b" stroke-width="1.51"/><path d="M-178,537L-187,690L-66,657Z" fill="#f7ae7a" stroke="#f7ae7a" stroke-width="1.51"/><path d="M-152,899L-79,875L-142,812Z" fill="#c1916f" stroke="#c1916f" stroke-width="1.51"/><path d="M-152,899L-75,1039L-79,875Z" fill="#b78d6e" stroke="#b78d6e" stroke-width="1.51"/><path d="M-178,537L-201,401L-187,690Z" fill="#ffbb81" stroke="#ffbb81" stroke-width="1.51"/><path d="M-184,238L-201,401L-89,238Z" fill="#ffe7a8" stroke="#ffe7a8" stroke-width="1.51"/><path d="M-187,690L-152,899L-142,812Z" fill="#d19771" stroke="#d19771" stroke-width="1.51"/><path d="M-197,21L-147,169L-83,99Z" fill="#fffbd4" stroke="#fffbd4" stroke-width="1.51"/><path d="M-83,99L-147,169L-89,238Z" fill="#fff6c6" stroke="#fff6c6" stroke-width="1.51"/><path d="M1715,35L1603,3L1598,149Z" fill="#b58b64" stroke="#b58b64" stroke-width="1.51"/><path d="M1530,3L1540,-156L1403,-20Z" fill="#b78d6e" stroke="#b78d6e" stroke-width="1.51"/><path d="M-147,169L-184,238L-89,238Z" fill="#fff2bd" stroke="#fff2bd" stroke-width="1.51"/><path d="M1603,945L1724,893L1632,805Z" fill="#6a2606" stroke="#6a2606" stroke-width="1.51"/><path d="M1487,1054L1641,1047L1603,945Z" fill="#662506" stroke="#662506" stroke-width="1.51"/><path d="M1224,1068L1641,1047L1487,1054Z" fill="#662506" stroke="#662506" stroke-width="1.51"/><path d="M1641,1047L1724,893L1603,945Z" fill="#662506" stroke="#662506" stroke-width="1.51"/><path d="M1727,529L1779,392L1640,367Z" fill="#af611a" stroke="#af611a" stroke-width="1.51"/><path d="M1673,229L1750,161L1598,149Z" fill="#b38450" stroke="#b38450" stroke-width="1.51"/><path d="M1802,601L1779,392L1727,529Z" fill="#ab5312" stroke="#ab5312" stroke-width="1.51"/><path d="M1789,812L1802,601L1632,805Z" fill="#8a3106" stroke="#8a3106" stroke-width="1.51"/><path d="M1385,-146L1540,-156L1066,-177Z" fill="#c99470" stroke="#c99470" stroke-width="1.51"/><path d="M1603,3L1540,-156L1530,3Z" fill="#b78d6e" stroke="#b78d6e" stroke-width="1.51"/><path d="M1641,-147L1540,-156L1603,3Z" fill="#b78d6e" stroke="#b78d6e" stroke-width="1.51"/><path d="M1779,392L1758,209L1673,229Z" fill="#b27a3a" stroke="#b27a3a" stroke-width="1.51"/><path d="M1758,209L1750,161L1673,229Z" fill="#b3824c" stroke="#b3824c" stroke-width="1.51"/><path d="M1724,893L1789,812L1632,805Z" fill="#742906" stroke="#742906" stroke-width="1.51"/><path d="M1802,1016L1789,812L1724,893Z" fill="#662506" stroke="#662506" stroke-width="1.51"/><path d="M1750,161L1715,35L1598,149Z" fill="#b5895b" stroke="#b5895b" stroke-width="1.51"/><path d="M-12,-5L-197,21L-83,99Z" fill="#fffdde" stroke="#fffdde" stroke-width="1.51"/><path d="M-147,169L-197,21L-184,238Z" fill="#fff8cb" stroke="#fff8cb" stroke-width="1.51"/><path d="M92,-111L-80,-130L-12,-5Z" fill="#ffffe5" stroke="#ffffe5" stroke-width="1.51"/><path d="M244,-174L-80,-130L92,-111Z" fill="#fffddb" stroke="#fffddb" stroke-width="1.51"/><path d="M-75,1039L-185,1070L75,1075Z" fill="#b78d6e" stroke="#b78d6e" stroke-width="1.51"/><path d="M-152,899L-185,1070L-75,1039Z" fill="#b78d6e" stroke="#b78d6e" stroke-width="1.51"/><path d="M-187,690L-185,1070L-152,899Z" fill="#ba8e6f" stroke="#ba8e6f" stroke-width="1.51"/><path d="M-201,401L-185,1070L-187,690Z" fill="#e5a174" stroke="#e5a174" stroke-width="1.51"/><path d="M-80,-130L-197,21L-12,-5Z" fill="#ffffe5" stroke="#ffffe5" stroke-width="1.51"/><path d="M-184,238L-197,21L-201,401Z" fill="#fff1bc" stroke="#fff1bc" stroke-width="1.51"/><path d="M1715,35L1641,-147L1603,3Z" fill="#b78d6e" stroke="#b78d6e" stroke-width="1.51"/><path d="M1641,1047L1802,1016L1724,893Z" fill="#662506" stroke="#662506" stroke-width="1.51"/><path d="M1789,812L1802,1016L1802,601Z" fill="#7a2b06" stroke="#7a2b06" stroke-width="1.51"/><path d="M-80,-130L-213,-177L-197,21Z" fill="#ffffe5" stroke="#ffffe5" stroke-width="1.51"/><path d="M-197,21L-213,-177L-201,401Z" fill="#fffcd6" stroke="#fffcd6" stroke-width="1.51"/><path d="M244,-174L-213,-177L-80,-130Z" fill="#ffffe5" stroke="#ffffe5" stroke-width="1.51"/><path d="M1066,-177L-213,-177L244,-174Z" fill="#fff0ba" stroke="#fff0ba" stroke-width="1.51"/><path d="M1715,35L1793,-133L1641,-147Z" fill="#b78d6e" stroke="#b78d6e" stroke-width="1.51"/><path d="M1750,161L1793,-133L1715,35Z" fill="#b68c6b" stroke="#b68c6b" stroke-width="1.51"/><path d="M1758,209L1793,-133L1750,161Z" fill="#b58a61" stroke="#b58a61" stroke-width="1.51"/><path d="M1779,392L1793,-133L1758,209Z" fill="#b48654" stroke="#b48654" stroke-width="1.51"/><path d="M1802,601L1793,-133L1779,392Z" fill="#b17837" stroke="#b17837" stroke-width="1.51"/></svg>