<svg xmlns="http://www.w3.org/2000/svg" width="1920" height="1080"><path d="M902,493L887,282L689,342Z" fill="#ffc656" stroke="#ffc656" stroke-width="1.51"/><path d="M689,342L659,523L902,493Z" fill="#fec34f" stroke="#fec34f" stroke-width="1.51"/><path d="M887,282L661,233L689,342Z" fill="#ffcf68" stroke="#ffcf68" stroke-width="1.51"/><path d="M689,342L519,419L659,523Z" fill="#ffca5d" stroke="#ffca5d" stroke-width="1.51"/><path d="M887,282L903,184L661,233Z" fill="#ffd06c" stroke="#ffd06c" stroke-width="1.51"/><path d="M1083,276L903,184L887,282Z" fill="#ffc764" stroke="#ffc764" stroke-width="1.51"/><path d="M902,493L1083,276L887,282Z" fill="#ffc054" stroke="#ffc054" stroke-width="1.51"/><path d="M563,230L519,419L689,342Z" fill="#ffd36e" stroke="#ffd36e" stroke-width="1.51"/><path d="M661,233L563,230L689,342Z" fill="#ffd474" stroke="#ffd474" stroke-width="1.51"/><path d="M680,-9L563,230L661,233Z" fill="#ffdc83" stroke="#ffdc83" stroke-width="1.51"/><path d="M902,493L1122,489L1083,276Z" fill="#ffb644" stroke="#ffb644" stroke-width="1.51"/><path d="M1031,702L1122,489L902,493Z" fill="#ffaa38" stroke="#ffaa38" stroke-width="1.51"/><path d="M659,523L788,749L902,493Z" fill="#feb441" stroke="#feb441" stroke-width="1.51"/><path d="M616,816L788,749L659,523Z" fill="#fead42" stroke="#fead42" stroke-width="1.51"/><path d="M788,749L1031,702L902,493Z" fill="#ffa736" stroke="#ffa736" stroke-width="1.51"/><path d="M1083,276L1091,91L903,184Z" fill="#ffc768" stroke="#ffc768" stroke-width="1.51"/><path d="M903,184L680,-9L661,233Z" fill="#ffd87b" stroke="#ffd87b" stroke-width="1.51"/><path d="M1297,187L1091,91L1083,276Z" fill="#ffbf62" stroke="#ffbf62" stroke-width="1.51"/><path d="M780,-39L680,-9L903,184Z" fill="#ffda81" stroke="#ffda81" stroke-width="1.51"/><path d="M519,419L395,486L659,523Z" fill="#ffc962" stroke="#ffc962" stroke-width="1.51"/><path d="M343,400L395,486L519,419Z" fill="#ffd16d" stroke="#ffd16d" stroke-width="1.51"/><path d="M343,400L519,419L563,230Z" fill="#ffd676" stroke="#ffd676" stroke-width="1.51"/><path d="M1091,91L780,-39L903,184Z" fill="#ffd177" stroke="#ffd177" stroke-width="1.51"/><path d="M1122,489L1267,318L1083,276Z" fill="#ffb349" stroke="#ffb349" stroke-width="1.51"/><path d="M1222,736L1263,483L1122,489Z" fill="#fe9f2f" stroke="#fe9f2f" stroke-width="1.51"/><path d="M1263,483L1267,318L1122,489Z" fill="#fdab3c" stroke="#fdab3c" stroke-width="1.51"/><path d="M788,749L837,881L1031,702Z" fill="#fa9c31" stroke="#fa9c31" stroke-width="1.51"/><path d="M448,716L616,816L659,523Z" fill="#ffb34d" stroke="#ffb34d" stroke-width="1.51"/><path d="M316,124L343,400L563,230Z" fill="#ffdf8a" stroke="#ffdf8a" stroke-width="1.51"/><path d="M1091,91L1056,-187L780,-39Z" fill="#ffd27d" stroke="#ffd27d" stroke-width="1.51"/><path d="M1297,187L1126,39L1091,91Z" fill="#ffc26a" stroke="#ffc26a" stroke-width="1.51"/><path d="M283,515L448,716L395,486Z" fill="#ffc666" stroke="#ffc666" stroke-width="1.51"/><path d="M395,486L448,716L659,523Z" fill="#ffc15b" stroke="#ffc15b" stroke-width="1.51"/><path d="M616,816L837,881L788,749Z" fill="#f8a037" stroke="#f8a037" stroke-width="1.51"/><path d="M616,816L601,869L837,881Z" fill="#f8a03b" stroke="#f8a03b" stroke-width="1.51"/><path d="M550,903L601,869L616,816Z" fill="#f8a244" stroke="#f8a244" stroke-width="1.51"/><path d="M1267,318L1297,187L1083,276Z" fill="#ffb857" stroke="#ffb857" stroke-width="1.51"/><path d="M1378,227L1297,187L1267,318Z" fill="#feb457" stroke="#feb457" stroke-width="1.51"/><path d="M1031,702L1222,736L1122,489Z" fill="#fe9b2b" stroke="#fe9b2b" stroke-width="1.51"/><path d="M1136,948L1222,736L1031,702Z" fill="#f88d23" stroke="#f88d23" stroke-width="1.51"/><path d="M343,400L283,515L395,486Z" fill="#ffd171" stroke="#ffd171" stroke-width="1.51"/><path d="M352,-31L316,124L563,230Z" fill="#ffe79a" stroke="#ffe79a" stroke-width="1.51"/><path d="M343,400L128,411L283,515Z" fill="#ffd678" stroke="#ffd678" stroke-width="1.51"/><path d="M448,716L550,903L616,816Z" fill="#fba94a" stroke="#fba94a" stroke-width="1.51"/><path d="M601,869L652,1051L837,881Z" fill="#f39937" stroke="#f39937" stroke-width="1.51"/><path d="M340,777L550,903L448,716Z" fill="#fcae54" stroke="#fcae54" stroke-width="1.51"/><path d="M1126,39L1056,-187L1091,91Z" fill="#ffcc78" stroke="#ffcc78" stroke-width="1.51"/><path d="M1297,187L1248,0L1126,39Z" fill="#ffc16c" stroke="#ffc16c" stroke-width="1.51"/><path d="M1297,187L1387,11L1248,0Z" fill="#ffbd6a" stroke="#ffbd6a" stroke-width="1.51"/><path d="M1263,483L1400,370L1267,318Z" fill="#fcaa40" stroke="#fcaa40" stroke-width="1.51"/><path d="M1446,514L1400,370L1263,483Z" fill="#faa135" stroke="#faa135" stroke-width="1.51"/><path d="M1400,370L1378,227L1267,318Z" fill="#fcae4d" stroke="#fcae4d" stroke-width="1.51"/><path d="M283,515L340,777L448,716Z" fill="#ffbd60" stroke="#ffbd60" stroke-width="1.51"/><path d="M433,-115L352,-31L680,-9Z" fill="#ffe99e" stroke="#ffe99e" stroke-width="1.51"/><path d="M680,-9L352,-31L563,230Z" fill="#ffe494" stroke="#ffe494" stroke-width="1.51"/><path d="M1248,0L1056,-187L1126,39Z" fill="#ffc976" stroke="#ffc976" stroke-width="1.51"/><path d="M780,-39L587,-195L680,-9Z" fill="#ffe18e" stroke="#ffe18e" stroke-width="1.51"/><path d="M825,-287L587,-195L780,-39Z" fill="#ffdf8a" stroke="#ffdf8a" stroke-width="1.51"/><path d="M587,-195L433,-115L680,-9Z" fill="#ffe597" stroke="#ffe597" stroke-width="1.51"/><path d="M1222,736L1446,514L1263,483Z" fill="#fb982c" stroke="#fb982c" stroke-width="1.51"/><path d="M837,881L1136,948L1031,702Z" fill="#f78f28" stroke="#f78f28" stroke-width="1.51"/><path d="M989,1055L1136,948L837,881Z" fill="#ef8724" stroke="#ef8724" stroke-width="1.51"/><path d="M1449,785L1446,514L1222,736Z" fill="#f88b22" stroke="#f88b22" stroke-width="1.51"/><path d="M1655,227L1387,11L1378,227Z" fill="#fcb15d" stroke="#fcb15d" stroke-width="1.51"/><path d="M550,903L652,1051L601,869Z" fill="#f39b40" stroke="#f39b40" stroke-width="1.51"/><path d="M470,1086L652,1051L550,903Z" fill="#ee9841" stroke="#ee9841" stroke-width="1.51"/><path d="M1056,-187L825,-287L780,-39Z" fill="#ffd781" stroke="#ffd781" stroke-width="1.51"/><path d="M786,1129L989,1055L837,881Z" fill="#eb8928" stroke="#eb8928" stroke-width="1.51"/><path d="M283,515L53,795L340,777Z" fill="#ffbe66" stroke="#ffbe66" stroke-width="1.51"/><path d="M316,124L128,411L343,400Z" fill="#ffdf8a" stroke="#ffdf8a" stroke-width="1.51"/><path d="M59,211L128,411L316,124Z" fill="#ffe698" stroke="#ffe698" stroke-width="1.51"/><path d="M1248,0L1263,-277L1056,-187Z" fill="#ffc674" stroke="#ffc674" stroke-width="1.51"/><path d="M1378,227L1387,11L1297,187Z" fill="#feb862" stroke="#feb862" stroke-width="1.51"/><path d="M1569,405L1378,227L1400,370Z" fill="#faa746" stroke="#faa746" stroke-width="1.51"/><path d="M340,777L320,880L550,903Z" fill="#faab54" stroke="#faab54" stroke-width="1.51"/><path d="M53,795L320,880L340,777Z" fill="#fcb360" stroke="#fcb360" stroke-width="1.51"/><path d="M587,-195L510,-237L433,-115Z" fill="#ffe89c" stroke="#ffe89c" stroke-width="1.51"/><path d="M433,-115L251,-188L352,-31Z" fill="#ffeea8" stroke="#ffeea8" stroke-width="1.51"/><path d="M825,-287L510,-237L587,-195Z" fill="#ffe291" stroke="#ffe291" stroke-width="1.51"/><path d="M652,1051L786,1129L837,881Z" fill="#eb8f2e" stroke="#eb8f2e" stroke-width="1.51"/><path d="M662,1276L786,1129L652,1051Z" fill="#e88c31" stroke="#e88c31" stroke-width="1.51"/><path d="M1301,1004L1449,785L1222,736Z" fill="#f27e1b" stroke="#f27e1b" stroke-width="1.51"/><path d="M1301,1004L1222,736L1136,948Z" fill="#f17f1b" stroke="#f17f1b" stroke-width="1.51"/><path d="M1446,514L1569,405L1400,370Z" fill="#f89e35" stroke="#f89e35" stroke-width="1.51"/><path d="M1640,518L1569,405L1446,514Z" fill="#f6962e" stroke="#f6962e" stroke-width="1.51"/><path d="M320,880L470,1086L550,903Z" fill="#f3a14d" stroke="#f3a14d" stroke-width="1.51"/><path d="M42,35L59,211L316,124Z" fill="#ffeea8" stroke="#ffeea8" stroke-width="1.51"/><path d="M42,35L316,124L352,-31Z" fill="#ffefab" stroke="#ffefab" stroke-width="1.51"/><path d="M1271,1097L1136,948L989,1055Z" fill="#e97819" stroke="#e97819" stroke-width="1.51"/><path d="M1271,1097L1301,1004L1136,948Z" fill="#e87417" stroke="#e87417" stroke-width="1.51"/><path d="M1387,11L1263,-277L1248,0Z" fill="#ffc171" stroke="#ffc171" stroke-width="1.51"/><path d="M1056,-187L1263,-277L825,-287Z" fill="#ffce7a" stroke="#ffce7a" stroke-width="1.51"/><path d="M1372,-308L1263,-277L1387,11Z" fill="#ffbe70" stroke="#ffbe70" stroke-width="1.51"/><path d="M510,-237L251,-188L433,-115Z" fill="#ffeca6" stroke="#ffeca6" stroke-width="1.51"/><path d="M128,411L26,584L283,515Z" fill="#ffd279" stroke="#ffd279" stroke-width="1.51"/><path d="M320,880L219,1104L470,1086Z" fill="#ee9f52" stroke="#ee9f52" stroke-width="1.51"/><path d="M-117,510L26,584L128,411Z" fill="#ffd680" stroke="#ffd680" stroke-width="1.51"/><path d="M1569,405L1655,227L1378,227Z" fill="#f9a64b" stroke="#f9a64b" stroke-width="1.51"/><path d="M1644,664L1640,518L1446,514Z" fill="#f58c26" stroke="#f58c26" stroke-width="1.51"/><path d="M1644,664L1446,514L1449,785Z" fill="#f5861f" stroke="#f5861f" stroke-width="1.51"/><path d="M1301,1004L1499,932L1449,785Z" fill="#ec7316" stroke="#ec7316" stroke-width="1.51"/><path d="M996,1308L1271,1097L989,1055Z" fill="#e6781a" stroke="#e6781a" stroke-width="1.51"/><path d="M59,211L-120,343L128,411Z" fill="#ffe596" stroke="#ffe596" stroke-width="1.51"/><path d="M251,-188L42,35L352,-31Z" fill="#fff1b0" stroke="#fff1b0" stroke-width="1.51"/><path d="M786,1129L866,1250L989,1055Z" fill="#e78425" stroke="#e78425" stroke-width="1.51"/><path d="M662,1276L866,1250L786,1129Z" fill="#e78a2b" stroke="#e78a2b" stroke-width="1.51"/><path d="M1824,267L1655,227L1569,405Z" fill="#f39e45" stroke="#f39e45" stroke-width="1.51"/><path d="M42,35L-25,203L59,211Z" fill="#ffefab" stroke="#ffefab" stroke-width="1.51"/><path d="M26,584L53,795L283,515Z" fill="#ffc76f" stroke="#ffc76f" stroke-width="1.51"/><path d="M-147,729L53,795L26,584Z" fill="#ffc373" stroke="#ffc373" stroke-width="1.51"/><path d="M1423,1036L1499,932L1301,1004Z" fill="#e66d12" stroke="#e66d12" stroke-width="1.51"/><path d="M1640,518L1824,267L1569,405Z" fill="#f19736" stroke="#f19736" stroke-width="1.51"/><path d="M1581,913L1644,664L1449,785Z" fill="#ef7718" stroke="#ef7718" stroke-width="1.51"/><path d="M1271,1097L1423,1036L1301,1004Z" fill="#e46c12" stroke="#e46c12" stroke-width="1.51"/><path d="M470,1086L662,1276L652,1051Z" fill="#e9913b" stroke="#e9913b" stroke-width="1.51"/><path d="M516,1381L662,1276L470,1086Z" fill="#e9933f" stroke="#e9933f" stroke-width="1.51"/><path d="M1263,-277L1372,-308L825,-287Z" fill="#ffc875" stroke="#ffc875" stroke-width="1.51"/><path d="M1609,-95L1372,-308L1387,11Z" fill="#feb96d" stroke="#feb96d" stroke-width="1.51"/><path d="M65,979L219,1104L320,880Z" fill="#f2a55b" stroke="#f2a55b" stroke-width="1.51"/><path d="M1669,1119L1581,913L1499,932Z" fill="#e1640e" stroke="#e1640e" stroke-width="1.51"/><path d="M1499,932L1581,913L1449,785Z" fill="#ec7115" stroke="#ec7115" stroke-width="1.51"/><path d="M866,1250L996,1308L989,1055Z" fill="#e77f22" stroke="#e77f22" stroke-width="1.51"/><path d="M1271,1097L1436,1389L1423,1036Z" fill="#e06710" stroke="#e06710" stroke-width="1.51"/><path d="M662,1276L996,1308L866,1250Z" fill="#e78627" stroke="#e78627" stroke-width="1.51"/><path d="M-25,203L-120,343L59,211Z" fill="#ffeaa1" stroke="#ffeaa1" stroke-width="1.51"/><path d="M-305,166L-120,343L-25,203Z" fill="#ffeba4" stroke="#ffeba4" stroke-width="1.51"/><path d="M1655,227L1609,-95L1387,11Z" fill="#fcb266" stroke="#fcb266" stroke-width="1.51"/><path d="M-120,343L-117,510L128,411Z" fill="#ffde88" stroke="#ffde88" stroke-width="1.51"/><path d="M53,795L65,979L320,880Z" fill="#faaf62" stroke="#faaf62" stroke-width="1.51"/><path d="M-143,1002L65,979L53,795Z" fill="#f8b069" stroke="#f8b069" stroke-width="1.51"/><path d="M251,-188L40,-187L42,35Z" fill="#fff4b6" stroke="#fff4b6" stroke-width="1.51"/><path d="M42,35L-205,34L-25,203Z" fill="#fff3b3" stroke="#fff3b3" stroke-width="1.51"/><path d="M-108,-280L40,-187L251,-188Z" fill="#fff5b8" stroke="#fff5b8" stroke-width="1.51"/><path d="M-108,-280L251,-188L510,-237Z" fill="#fff1b0" stroke="#fff1b0" stroke-width="1.51"/><path d="M-117,510L-147,729L26,584Z" fill="#ffcc79" stroke="#ffcc79" stroke-width="1.51"/><path d="M-227,791L-147,729L-314,565Z" fill="#ffc473" stroke="#ffc473" stroke-width="1.51"/><path d="M1655,227L1783,-74L1609,-95Z" fill="#f7ad66" stroke="#f7ad66" stroke-width="1.51"/><path d="M1871,563L1824,267L1640,518Z" fill="#ed8e2c" stroke="#ed8e2c" stroke-width="1.51"/><path d="M1871,563L1640,518L1644,664Z" fill="#ef8321" stroke="#ef8321" stroke-width="1.51"/><path d="M1609,-95L1615,-242L1372,-308Z" fill="#fdb56b" stroke="#fdb56b" stroke-width="1.51"/><path d="M1783,-74L1615,-242L1609,-95Z" fill="#f7af68" stroke="#f7af68" stroke-width="1.51"/><path d="M65,979L39,1075L219,1104Z" fill="#efa35e" stroke="#efa35e" stroke-width="1.51"/><path d="M289,1391L516,1381L470,1086Z" fill="#ea984a" stroke="#ea984a" stroke-width="1.51"/><path d="M-143,1002L39,1075L65,979Z" fill="#f2a865" stroke="#f2a865" stroke-width="1.51"/><path d="M662,1276L516,1381L996,1308Z" fill="#e78b2f" stroke="#e78b2f" stroke-width="1.51"/><path d="M289,1391L470,1086L219,1104Z" fill="#eb9b51" stroke="#eb9b51" stroke-width="1.51"/><path d="M996,1308L1187,1377L1271,1097Z" fill="#e57316" stroke="#e57316" stroke-width="1.51"/><path d="M1669,1119L1748,876L1581,913Z" fill="#de620d" stroke="#de620d" stroke-width="1.51"/><path d="M516,1381L1187,1377L996,1308Z" fill="#e78324" stroke="#e78324" stroke-width="1.51"/><path d="M1581,913L1748,876L1644,664Z" fill="#e96f14" stroke="#e96f14" stroke-width="1.51"/><path d="M1669,1119L1499,932L1423,1036Z" fill="#e0630d" stroke="#e0630d" stroke-width="1.51"/><path d="M-314,565L-147,729L-117,510Z" fill="#ffcd79" stroke="#ffcd79" stroke-width="1.51"/><path d="M40,-187L-166,-23L42,35Z" fill="#fff7bc" stroke="#fff7bc" stroke-width="1.51"/><path d="M1748,876L1809,768L1644,664Z" fill="#e87014" stroke="#e87014" stroke-width="1.51"/><path d="M1809,768L1871,563L1644,664Z" fill="#eb7818" stroke="#eb7818" stroke-width="1.51"/><path d="M1886,166L1783,-74L1655,227Z" fill="#f2a55b" stroke="#f2a55b" stroke-width="1.51"/><path d="M1886,166L1655,227L1824,267Z" fill="#ef9f50" stroke="#ef9f50" stroke-width="1.51"/><path d="M-166,-23L-205,34L42,35Z" fill="#fff6bb" stroke="#fff6bb" stroke-width="1.51"/><path d="M1950,195L1886,166L1824,267Z" fill="#ec9b4e" stroke="#ec9b4e" stroke-width="1.51"/><path d="M-147,729L-143,1002L53,795Z" fill="#fdb66c" stroke="#fdb66c" stroke-width="1.51"/><path d="M-314,565L-117,510L-362,334Z" fill="#ffda84" stroke="#ffda84" stroke-width="1.51"/><path d="M2085,865L2019,663L1809,768Z" fill="#e06810" stroke="#e06810" stroke-width="1.51"/><path d="M1578,1357L1669,1119L1423,1036Z" fill="#db5d0a" stroke="#db5d0a" stroke-width="1.51"/><path d="M146,1341L289,1391L219,1104Z" fill="#ec9e57" stroke="#ec9e57" stroke-width="1.51"/><path d="M516,1381L1436,1389L1187,1377Z" fill="#e67a1c" stroke="#e67a1c" stroke-width="1.51"/><path d="M146,1341L219,1104L39,1075Z" fill="#eca05b" stroke="#eca05b" stroke-width="1.51"/><path d="M-227,791L-143,1002L-147,729Z" fill="#fdb76c" stroke="#fdb76c" stroke-width="1.51"/><path d="M-362,334L-117,510L-120,343Z" fill="#ffe08c" stroke="#ffe08c" stroke-width="1.51"/><path d="M-205,34L-305,166L-25,203Z" fill="#fff1ae" stroke="#fff1ae" stroke-width="1.51"/><path d="M-332,-288L-305,166L-205,34Z" fill="#fff7bc" stroke="#fff7bc" stroke-width="1.51"/><path d="M40,-187L-108,-280L-166,-23Z" fill="#fff7bc" stroke="#fff7bc" stroke-width="1.51"/><path d="M-166,-23L-332,-288L-205,34Z" fill="#fff7bc" stroke="#fff7bc" stroke-width="1.51"/><path d="M825,-287L-108,-280L510,-237Z" fill="#ffeca5" stroke="#ffeca5" stroke-width="1.51"/><path d="M-332,-288L-108,-280L825,-287Z" fill="#fff3b5" stroke="#fff3b5" stroke-width="1.51"/><path d="M-143,1002L-124,1066L39,1075Z" fill="#f0a664" stroke="#f0a664" stroke-width="1.51"/><path d="M-320,1170L-124,1066L-143,1002Z" fill="#eea362" stroke="#eea362" stroke-width="1.51"/><path d="M-334,883L-143,1002L-227,791Z" fill="#fbb26a" stroke="#fbb26a" stroke-width="1.51"/><path d="M1886,166L1977,-72L1783,-74Z" fill="#efa463" stroke="#efa463" stroke-width="1.51"/><path d="M2033,334L1950,195L1824,267Z" fill="#ea9646" stroke="#ea9646" stroke-width="1.51"/><path d="M-14,1386L146,1341L39,1075Z" fill="#eda25f" stroke="#eda25f" stroke-width="1.51"/><path d="M289,1391L1436,1389L516,1381Z" fill="#e78b2d" stroke="#e78b2d" stroke-width="1.51"/><path d="M1187,1377L1436,1389L1271,1097Z" fill="#e26c12" stroke="#e26c12" stroke-width="1.51"/><path d="M-305,166L-362,334L-120,343Z" fill="#ffe89d" stroke="#ffe89d" stroke-width="1.51"/><path d="M2019,663L1871,563L1809,768Z" fill="#e67316" stroke="#e67316" stroke-width="1.51"/><path d="M2080,541L2033,334L1871,563Z" fill="#e78526" stroke="#e78526" stroke-width="1.51"/><path d="M1871,563L2033,334L1824,267Z" fill="#e88d32" stroke="#e88d32" stroke-width="1.51"/><path d="M1902,1047L1809,768L1748,876Z" fill="#dd610c" stroke="#dd610c" stroke-width="1.51"/><path d="M1436,1389L1578,1357L1423,1036Z" fill="#de610c" stroke="#de610c" stroke-width="1.51"/><path d="M1902,1047L1748,876L1669,1119Z" fill="#d75907" stroke="#d75907" stroke-width="1.51"/><path d="M-314,565L-334,883L-227,791Z" fill="#ffbf71" stroke="#ffbf71" stroke-width="1.51"/><path d="M-124,1066L-14,1386L39,1075Z" fill="#eea362" stroke="#eea362" stroke-width="1.51"/><path d="M-362,334L-334,883L-314,565Z" fill="#ffcd7a" stroke="#ffcd7a" stroke-width="1.51"/><path d="M2125,-105L1977,-72L1950,195Z" fill="#eda362" stroke="#eda362" stroke-width="1.51"/><path d="M1950,195L1977,-72L1886,166Z" fill="#ec9f59" stroke="#ec9f59" stroke-width="1.51"/><path d="M1783,-74L1880,-287L1615,-242Z" fill="#f4aa66" stroke="#f4aa66" stroke-width="1.51"/><path d="M1977,-197L1880,-287L1783,-74Z" fill="#efa563" stroke="#efa563" stroke-width="1.51"/><path d="M1615,-242L1880,-287L1372,-308Z" fill="#f9b169" stroke="#f9b169" stroke-width="1.51"/><path d="M1810,1280L1902,1047L1669,1119Z" fill="#d15204" stroke="#d15204" stroke-width="1.51"/><path d="M2019,663L2080,541L1871,563Z" fill="#e67a1c" stroke="#e67a1c" stroke-width="1.51"/><path d="M2125,-105L1977,-197L1977,-72Z" fill="#eea362" stroke="#eea362" stroke-width="1.51"/><path d="M2272,730L2080,541L2019,663Z" fill="#e57417" stroke="#e57417" stroke-width="1.51"/><path d="M-230,1362L-14,1386L-124,1066Z" fill="#eea362" stroke="#eea362" stroke-width="1.51"/><path d="M146,1341L-14,1386L289,1391Z" fill="#eca05a" stroke="#eca05a" stroke-width="1.51"/><path d="M2125,-105L1950,195L2266,171Z" fill="#ec9f5a" stroke="#ec9f5a" stroke-width="1.51"/><path d="M1977,-72L1977,-197L1783,-74Z" fill="#eea462" stroke="#eea462" stroke-width="1.51"/><path d="M-108,-280L-332,-288L-166,-23Z" fill="#fff7bc" stroke="#fff7bc" stroke-width="1.51"/><path d="M-305,166L-332,-288L-362,334Z" fill="#fff3b5" stroke="#fff3b5" stroke-width="1.51"/><path d="M1372,-308L-332,-288L825,-287Z" fill="#ffe393" stroke="#ffe393" stroke-width="1.51"/><path d="M1578,1357L1810,1280L1669,1119Z" fill="#d65707" stroke="#d65707" stroke-width="1.51"/><path d="M2125,1047L2085,865L1902,1047Z" fill="#d35405" stroke="#d35405" stroke-width="1.51"/><path d="M1902,1047L2085,865L1809,768Z" fill="#da5c09" stroke="#da5c09" stroke-width="1.51"/><path d="M-362,334L-320,1170L-334,883Z" fill="#ffbb6e" stroke="#ffbb6e" stroke-width="1.51"/><path d="M-334,883L-320,1170L-143,1002Z" fill="#f2a865" stroke="#f2a865" stroke-width="1.51"/><path d="M2218,471L2033,334L2080,541Z" fill="#e78829" stroke="#e78829" stroke-width="1.51"/><path d="M2266,171L1950,195L2033,334Z" fill="#ea984b" stroke="#ea984b" stroke-width="1.51"/><path d="M1977,-197L2152,-269L1880,-287Z" fill="#eea362" stroke="#eea362" stroke-width="1.51"/><path d="M2272,730L2218,471L2080,541Z" fill="#e67b1d" stroke="#e67b1d" stroke-width="1.51"/><path d="M1810,1280L1950,1238L1902,1047Z" fill="#cd4e02" stroke="#cd4e02" stroke-width="1.51"/><path d="M2159,1359L1950,1238L1810,1280Z" fill="#cc4c02" stroke="#cc4c02" stroke-width="1.51"/><path d="M-320,1170L-230,1362L-124,1066Z" fill="#eea362" stroke="#eea362" stroke-width="1.51"/><path d="M1950,1238L2000,1181L1902,1047Z" fill="#cc4c02" stroke="#cc4c02" stroke-width="1.51"/><path d="M2085,865L2272,730L2019,663Z" fill="#e16911" stroke="#e16911" stroke-width="1.51"/><path d="M2159,1359L2125,1047L2000,1181Z" fill="#cc4c02" stroke="#cc4c02" stroke-width="1.51"/><path d="M2000,1181L2125,1047L1902,1047Z" fill="#cc4c02" stroke="#cc4c02" stroke-width="1.51"/><path d="M2272,730L2281,368L2218,471Z" fill="#e78023" stroke="#e78023" stroke-width="1.51"/><path d="M2218,471L2281,368L2033,334Z" fill="#e88d32" stroke="#e88d32" stroke-width="1.51"/><path d="M2281,368L2266,171L2033,334Z" fill="#e99442" stroke="#e99442" stroke-width="1.51"/><path d="M2125,1047L2170,965L2085,865Z" fill="#d55606" stroke="#d55606" stroke-width="1.51"/><path d="M2266,171L2152,-269L2125,-105Z" fill="#eea362" stroke="#eea362" stroke-width="1.51"/><path d="M2125,-105L2152,-269L1977,-197Z" fill="#eea362" stroke="#eea362" stroke-width="1.51"/><path d="M2170,965L2272,730L2085,865Z" fill="#dc5f0b" stroke="#dc5f0b" stroke-width="1.51"/><path d="M1950,1238L2159,1359L2000,1181Z" fill="#cc4c02" stroke="#cc4c02" stroke-width="1.51"/><path d="M2125,1047L2159,1359L2170,965Z" fill="#cc4c02" stroke="#cc4c02" stroke-width="1.51"/><path d="M2170,965L2159,1359L2272,730Z" fill="#d05204" stroke="#d05204" stroke-width="1.51"/><path d="M1578,1357L2159,1359L1810,1280Z" fill="#cf5003" stroke="#cf5003" stroke-width="1.51"/><path d="M1436,1389L2159,1359L1578,1357Z" fill="#d45606" stroke="#d45606" stroke-width="1.51"/></svg>